<?xml version="1.0" encoding="UTF-8" standalone="no"?>
<!-- Created with Inkscape (http://www.inkscape.org/) -->

<svg
   xmlns:dc="http://purl.org/dc/elements/1.1/"
   xmlns:cc="http://creativecommons.org/ns#"
   xmlns:rdf="http://www.w3.org/1999/02/22-rdf-syntax-ns#"
   xmlns:svg="http://www.w3.org/2000/svg"
   xmlns="http://www.w3.org/2000/svg"
   xmlns:sodipodi="http://sodipodi.sourceforge.net/DTD/sodipodi-0.dtd"
   xmlns:inkscape="http://www.inkscape.org/namespaces/inkscape"
   width="471.0802"
   height="224.21875"
   id="svg2"
   version="1.1"
   inkscape:version="0.48.2 r9819"
   sodipodi:docname="AunionB_complement.svg">
  <defs
     id="defs4" />
  <sodipodi:namedview
     id="base"
     pagecolor="#ffffff"
     bordercolor="#666666"
     borderopacity="1.0"
     inkscape:pageopacity="0.0"
     inkscape:pageshadow="2"
     inkscape:zoom="1.6472417"
     inkscape:cx="343.93489"
     inkscape:cy="221.68651"
     inkscape:document-units="px"
     inkscape:current-layer="layer1"
     showgrid="false"
     inkscape:window-width="1845"
     inkscape:window-height="1362"
     inkscape:window-x="0"
     inkscape:window-y="0"
     inkscape:window-maximized="0"
     fit-margin-top="0"
     fit-margin-left="0"
     fit-margin-right="0"
     fit-margin-bottom="0" />
  <metadata
     id="metadata7">
    <rdf:RDF>
      <cc:Work
         rdf:about="">
        <dc:format>image/svg+xml</dc:format>
        <dc:type
           rdf:resource="http://purl.org/dc/dcmitype/StillImage" />
        <dc:title />
      </cc:Work>
    </rdf:RDF>
  </metadata>
  <g
     inkscape:label="Ebene 1"
     inkscape:groupmode="layer"
     id="layer1"
     transform="translate(-1114.1875,-425.625)">
    <g
       id="g3219">
      <path
         id="rect3213"
         transform="translate(1114.1875,425.625)"
         d="M 1 1 L 1 223.21875 L 304.53125 223.21875 L 304.53125 1 L 1 1 z M 116.4375 35.375 C 129.791 35.375 142.3702 38.65195 153.4375 44.4375 C 164.5048 38.65195 177.084 35.375 190.4375 35.375 C 234.6203 35.375 270.4375 71.19222 270.4375 115.375 C 270.4375 159.55778 234.6203 195.375 190.4375 195.375 C 177.0806 195.375 164.5069 192.06958 153.4375 186.28125 C 142.3681 192.06958 129.7944 195.375 116.4375 195.375 C 72.2547 195.375 36.4375 159.55778 36.4375 115.375 C 36.4375 71.19222 72.2547 35.375 116.4375 35.375 z "
         style="color:#000000;fill:#ff0000;stroke:none;stroke-width:2;stroke-linecap:butt;stroke-linejoin:miter;stroke-miterlimit:4;stroke-opacity:1;stroke-dasharray:none;stroke-dashoffset:0;marker:none;visibility:visible;display:inline;overflow:visible;enable-background:accumulate;fill-opacity:0.29803923" />
      <rect
         style="color:#000000;fill:none;stroke:#000000;stroke-width:2;stroke-linecap:butt;stroke-linejoin:miter;stroke-miterlimit:4;stroke-opacity:1;stroke-dasharray:none;stroke-dashoffset:0;marker:none;visibility:visible;display:inline;overflow:visible;enable-background:accumulate"
         id="rect3147"
         width="303.52524"
         height="222.21124"
         x="1115.1821"
         y="426.62604" />
      <text
         xml:space="preserve"
         style="font-size:40px;font-style:normal;font-weight:normal;line-height:125%;letter-spacing:0px;word-spacing:0px;fill:#000000;fill-opacity:1;stroke:none;font-family:Bitstream Vera Sans"
         x="1121.9495"
         y="464.32141"
         id="text3149"
         sodipodi:linespacing="125%"><tspan
           sodipodi:role="line"
           id="tspan3151"
           x="1121.9495"
           y="464.32141">G</tspan></text>
      <path
         style="fill:#0000ff;fill-opacity:0.29803922;stroke:none"
         d="m 1230.6268,461.01271 c -44.1828,0 -80,35.81722 -80,80 0,44.18278 35.8172,80 80,80 13.3569,0 25.9306,-3.30542 37,-9.09375 11.0694,5.78833 23.6431,9.09375 37,9.09375 44.1828,0 80,-35.81722 80,-80 0,-44.18278 -35.8172,-80 -80,-80 -13.3535,0 -25.9327,3.27695 -37,9.0625 -11.0673,-5.78555 -23.6465,-9.0625 -37,-9.0625 z"
         id="path3155"
         inkscape:connector-curvature="0" />
      <g
         id="g3157"
         transform="translate(816.57953,413.65053)">
        <path
           transform="translate(230.04724,-23)"
           d="m 264,150.36218 c 0,44.18278 -35.81722,80 -80,80 -44.18278,0 -80,-35.81722 -80,-80 0,-44.18278 35.81722,-79.999997 80,-79.999997 44.18278,0 80,35.817217 80,79.999997 z"
           sodipodi:ry="80"
           sodipodi:rx="80"
           sodipodi:cy="150.36218"
           sodipodi:cx="184"
           id="path3159"
           style="fill:none;stroke:#000000;stroke-width:2;stroke-miterlimit:4;stroke-dasharray:none"
           sodipodi:type="arc" />
        <path
           transform="translate(304.04724,-23)"
           sodipodi:type="arc"
           style="fill:none;stroke:#000000;stroke-width:2;stroke-miterlimit:4;stroke-dasharray:none"
           id="path3161"
           sodipodi:cx="184"
           sodipodi:cy="150.36218"
           sodipodi:rx="80"
           sodipodi:ry="80"
           d="m 264,150.36218 c 0,44.18278 -35.81722,80 -80,80 -44.18278,0 -80,-35.81722 -80,-80 0,-44.18278 35.81722,-79.999997 80,-79.999997 44.18278,0 80,35.817217 80,79.999997 z" />
        <text
           xml:space="preserve"
           style="font-size:40px;font-style:normal;font-weight:normal;line-height:125%;letter-spacing:0px;word-spacing:0px;fill:#000000;fill-opacity:1;stroke:none;font-family:Bitstream Vera Sans"
           x="358.0863"
           y="112.86218"
           id="text3163"
           sodipodi:linespacing="125%"><tspan
             sodipodi:role="line"
             id="tspan3165"
             x="358.0863"
             y="112.86218">A</tspan></text>
        <text
           xml:space="preserve"
           style="font-size:40px;font-style:normal;font-weight:normal;line-height:125%;letter-spacing:0px;word-spacing:0px;fill:#000000;fill-opacity:1;stroke:none;font-family:Bitstream Vera Sans"
           x="519.0863"
           y="112.86218"
           id="text3167"
           sodipodi:linespacing="125%"><tspan
             sodipodi:role="line"
             id="tspan3169"
             x="519.0863"
             y="112.86218">B</tspan></text>
      </g>
      <g
         id="g3209">
        <rect
           style="color:#000000;fill:#0000ff;fill-opacity:0.29803923;fill-rule:nonzero;stroke:#000000;stroke-width:2;stroke-miterlimit:4;stroke-dasharray:none;marker:none;visibility:visible;display:inline;overflow:visible;enable-background:accumulate"
           id="rect5659"
           width="38"
           height="28"
           x="1442.3795"
           y="562.27692" />
        <text
           xml:space="preserve"
           style="font-size:40px;font-style:normal;font-weight:normal;line-height:125%;letter-spacing:0px;word-spacing:0px;fill:#000000;fill-opacity:1;stroke:none;font-family:Bitstream Vera Sans"
           x="1493.9982"
           y="590.60309"
           id="text5692"
           sodipodi:linespacing="125%"><tspan
             sodipodi:role="line"
             id="tspan5694"
             x="1493.9982"
             y="590.60309">A∪B</tspan></text>
      </g>
      <g
         id="g3202">
        <rect
           style="fill:#ff0000;fill-opacity:0.29803923;stroke:#000000;stroke-width:1.99999988000000010;stroke-miterlimit:4;stroke-opacity:1;stroke-dasharray:none"
           id="rect5653"
           width="38"
           height="28"
           x="1442.3795"
           y="615.42224" />
        <g
           id="g3194"
           transform="translate(-2.9884033,0)">
          <text
             sodipodi:linespacing="125%"
             id="text5696"
             y="642.8988"
             x="1496.9866"
             style="font-size:40px;font-style:normal;font-weight:normal;line-height:125%;letter-spacing:0px;word-spacing:0px;fill:#000000;fill-opacity:1;stroke:none;font-family:Bitstream Vera Sans"
             xml:space="preserve"><tspan
               y="642.8988"
               x="1496.9866"
               id="tspan5698"
               sodipodi:role="line">A∪B</tspan></text>
          <path
             sodipodi:nodetypes="cc"
             inkscape:connector-curvature="0"
             id="path3182"
             d="m 1499.3715,610.98445 88.633,0"
             style="fill:none;stroke:#000000;stroke-width:1px;stroke-linecap:butt;stroke-linejoin:miter;stroke-opacity:1" />
        </g>
      </g>
    </g>
  </g>
</svg>
