<?xml version="1.0" encoding="UTF-8" standalone="no"?>
<!-- Created with Inkscape (http://www.inkscape.org/) -->

<svg
   xmlns:dc="http://purl.org/dc/elements/1.1/"
   xmlns:cc="http://creativecommons.org/ns#"
   xmlns:rdf="http://www.w3.org/1999/02/22-rdf-syntax-ns#"
   xmlns:svg="http://www.w3.org/2000/svg"
   xmlns="http://www.w3.org/2000/svg"
   xmlns:sodipodi="http://sodipodi.sourceforge.net/DTD/sodipodi-0.dtd"
   xmlns:inkscape="http://www.inkscape.org/namespaces/inkscape"
   width="562.67084"
   height="223.01445"
   id="svg2"
   version="1.1"
   inkscape:version="0.48.2 r9819"
   sodipodi:docname="AunionB_intersect_AunionC.svg">
  <defs
     id="defs4" />
  <sodipodi:namedview
     id="base"
     pagecolor="#ffffff"
     bordercolor="#666666"
     borderopacity="1.0"
     inkscape:pageopacity="0.0"
     inkscape:pageshadow="2"
     inkscape:zoom="1.1647758"
     inkscape:cx="759.48717"
     inkscape:cy="406.81159"
     inkscape:document-units="px"
     inkscape:current-layer="layer1"
     showgrid="false"
     inkscape:window-width="2560"
     inkscape:window-height="1378"
     inkscape:window-x="-8"
     inkscape:window-y="-8"
     inkscape:window-maximized="1"
     fit-margin-top="0"
     fit-margin-left="0"
     fit-margin-right="0"
     fit-margin-bottom="0" />
  <metadata
     id="metadata7">
    <rdf:RDF>
      <cc:Work
         rdf:about="">
        <dc:format>image/svg+xml</dc:format>
        <dc:type
           rdf:resource="http://purl.org/dc/dcmitype/StillImage" />
        <dc:title></dc:title>
      </cc:Work>
    </rdf:RDF>
  </metadata>
  <g
     inkscape:label="Ebene 1"
     inkscape:groupmode="layer"
     id="layer1"
     transform="translate(-104.36528,-47.37797)">
    <g
       id="g3168"
       transform="translate(-491.94018,530.57422)">
      <g
         transform="translate(123.84339,-1101.7275)"
         id="g5591">
        <path
           style="fill:#0000ff;fill-opacity:0.24914676;stroke:none"
           d="m 619.46207,619.53288 c -42.91702,0 -77.93473,33.7892 -79.90625,76.21875 -20.04645,14.53773 -33.09375,38.12458 -33.09375,64.7813 0,44.18266 35.81722,79.99996 80,79.99996 42.90657,0 77.91912,-33.7725 79.90625,-76.18756 20.04897,-14.5374 33.09375,-38.1538 33.09375,-64.81245 0,-44.18278 -35.81722,-80 -80,-80 z"
           id="path5575"
           inkscape:connector-curvature="0" />
        <path
           style="fill:#008000;fill-opacity:0.24914676;stroke:none"
           d="m 553.46207,619.53288 c -44.18278,0 -80,35.81722 -80,80 0,44.18278 35.81722,80.00001 80,80.00001 11.7731,0 22.93423,-2.5582 33,-7.125 10.06257,4.5633 21.2317,7.125 33,7.125 44.18278,0 80,-35.81723 80,-80.00001 0,-44.18278 -35.81722,-80 -80,-80 -11.7659,0 -22.93903,2.5634 -33,7.125 -10.06417,-4.56512 -21.2293,-7.125 -33,-7.125 z"
           id="path5570"
           inkscape:connector-curvature="0" />
        <g
           transform="translate(409.41483,574.1707)"
           id="g5490">
          <path
             transform="translate(-39.95276,-25)"
             d="m 264,150.36218 c 0,44.18278 -35.81722,80 -80,80 -44.18278,0 -80,-35.81722 -80,-80 0,-44.18278 35.81722,-79.999997 80,-79.999997 44.18278,0 80,35.817217 80,79.999997 z"
             sodipodi:ry="80"
             sodipodi:rx="80"
             sodipodi:cy="150.36218"
             sodipodi:cx="184"
             id="path5492"
             style="fill:none;stroke:#000000;stroke-width:2;stroke-miterlimit:4;stroke-dasharray:none"
             sodipodi:type="arc" />
          <path
             transform="translate(26.04724,-25)"
             sodipodi:type="arc"
             style="fill:#000000;fill-opacity:0;stroke:#000000;stroke-width:2;stroke-miterlimit:4;stroke-dasharray:none"
             id="path5494"
             sodipodi:cx="184"
             sodipodi:cy="150.36218"
             sodipodi:rx="80"
             sodipodi:ry="80"
             d="m 264,150.36218 c 0,44.18278 -35.81722,80 -80,80 -44.18278,0 -80,-35.81722 -80,-80 0,-44.18278 35.81722,-79.999997 80,-79.999997 44.18278,0 80,35.817217 80,79.999997 z" />
          <path
             d="m 264,150.36218 c 0,44.18278 -35.81722,80 -80,80 -44.18278,0 -80,-35.81722 -80,-80 0,-44.18278 35.81722,-79.999997 80,-79.999997 44.18278,0 80,35.817217 80,79.999997 z"
             sodipodi:ry="80"
             sodipodi:rx="80"
             sodipodi:cy="150.36218"
             sodipodi:cx="184"
             id="path5496"
             style="fill:none;stroke:#000000;stroke-width:2;stroke-miterlimit:4;stroke-dasharray:none"
             sodipodi:type="arc"
             transform="translate(-6.95276,36)" />
          <text
             sodipodi:linespacing="125%"
             id="text5498"
             y="244.36218"
             x="162.77966"
             style="font-size:40px;font-style:normal;font-weight:normal;line-height:125%;letter-spacing:0px;word-spacing:0px;fill:#000000;fill-opacity:1;stroke:none;font-family:Bitstream Vera Sans"
             xml:space="preserve"><tspan
               y="244.36218"
               x="162.77966"
               id="tspan5500"
               sodipodi:role="line">B</tspan></text>
          <text
             sodipodi:linespacing="125%"
             id="text5502"
             y="106.14539"
             x="86.010132"
             style="font-size:40px;font-style:normal;font-weight:normal;line-height:125%;letter-spacing:0px;word-spacing:0px;fill:#000000;fill-opacity:1;stroke:none;font-family:Bitstream Vera Sans"
             xml:space="preserve"><tspan
               y="106.14539"
               x="86.010132"
               id="tspan5504"
               sodipodi:role="line">A</tspan></text>
          <text
             sodipodi:linespacing="125%"
             id="text5506"
             y="106.12585"
             x="242.01013"
             style="font-size:40px;font-style:normal;font-weight:normal;line-height:125%;letter-spacing:0px;word-spacing:0px;fill:#000000;fill-opacity:1;stroke:none;font-family:Bitstream Vera Sans"
             xml:space="preserve"><tspan
               y="106.12585"
               x="242.01013"
               id="tspan5508"
               sodipodi:role="line">C</tspan></text>
        </g>
        <path
           style="fill:#000000;fill-opacity:0;stroke:#ff0000;stroke-width:2;stroke-miterlimit:4;stroke-dasharray:none"
           d="m 619.46252,619.53288 c -1.07911,0 -2.15003,0.0202 -3.21875,0.0625 -0.50225,0.0199 -1.00018,0.0646 -1.5,0.0937 -0.88122,0.0513 -1.75167,0.10788 -2.625,0.1875 -0.40603,0.0373 -0.8145,0.0816 -1.21875,0.125 -0.0414,0.004 -0.0836,-0.004 -0.125,0 -0.9984,0.10804 -1.98172,0.23058 -2.96875,0.375 -0.26127,0.0382 -0.52081,0.0842 -0.78125,0.125 -0.87089,0.13703 -1.73241,0.3038 -2.59375,0.46875 -0.52053,0.0997 -1.04559,0.20278 -1.5625,0.3125 -0.43691,0.0927 -0.87826,0.18141 -1.3125,0.28125 -1.115,0.25636 -2.21581,0.54141 -3.3125,0.84375 -0.63749,0.17509 -1.27524,0.34089 -1.90625,0.53125 -0.84683,0.25619 -1.69653,0.52938 -2.53125,0.8125 -0.52554,0.17825 -1.04192,0.37375 -1.5625,0.5625 -0.57255,0.20733 -1.15237,0.40506 -1.71875,0.625 -0.0959,0.0373 -0.18549,0.0873 -0.28125,0.125 -0.59342,0.23341 -1.19486,0.47179 -1.78125,0.71875 -0.66788,0.28128 -1.3415,0.57644 -2,0.875 -26.62118,12.08116 -45.47571,38.30683 -46.90625,69.09375 -20.04645,14.53773 -33.09375,38.12453 -33.09375,64.78125 0,1.26541 0.0356,2.53021 0.0937,3.78125 13.18261,9.56445 29.37383,15.21875 46.90625,15.21875 11.7731,0 22.93423,-2.5582 33,-7.125 10.06257,4.5633 21.2317,7.125 33,7.125 17.51678,0 33.72999,-5.6386 46.90625,-15.1875 0.32245,-0.23381 0.64994,-0.48027 0.96875,-0.71875 0.30325,-0.22679 0.60635,-0.45653 0.90625,-0.6875 0.71886,-0.55362 1.42578,-1.11027 2.125,-1.6875 0.0742,-0.0613 0.14474,-0.12597 0.21875,-0.1875 0.73401,-0.61021 1.44476,-1.23938 2.15625,-1.875 0.17042,-0.1523 0.36214,-0.28377 0.53125,-0.4375 0.0979,-0.089 0.18377,-0.19177 0.28125,-0.28125 0.40089,-0.36806 0.7942,-0.74893 1.1875,-1.125 0.16483,-0.15758 0.33652,-0.30978 0.5,-0.46875 0.27144,-0.264 0.54482,-0.51345 0.8125,-0.78125 0.27712,-0.27712 0.53945,-0.56261 0.8125,-0.84375 0.61471,-0.63328 1.21882,-1.28422 1.8125,-1.9375 0.84573,-0.93051 1.69833,-1.87401 2.5,-2.84375 0.0145,-0.0176 0.0167,-0.0449 0.0312,-0.0625 0.0946,-0.11464 0.18727,-0.22857 0.28125,-0.34375 0.71122,-0.87209 1.41913,-1.75417 2.09375,-2.65625 0.25375,-0.3393 0.50154,-0.68782 0.75,-1.03125 0.50622,-0.69958 0.98486,-1.40865 1.46875,-2.125 0.38194,-0.56534 0.75726,-1.14325 1.125,-1.71875 0.32442,-0.5079 0.65557,-1.01563 0.96875,-1.53125 0.66814,-1.09961 1.29047,-2.2102 1.90625,-3.34375 0.58244,-1.07218 1.15336,-2.14893 1.6875,-3.25 0.0304,-0.0627 0.0635,-0.12472 0.0937,-0.1875 0.0384,-0.0796 0.0557,-0.17025 0.0937,-0.25 0.51989,-1.08819 1.02853,-2.19781 1.5,-3.3125 0.49322,-1.16611 0.96753,-2.33766 1.40625,-3.53125 0.0114,-0.031 0.0199,-0.0627 0.0312,-0.0937 0.43395,-1.18517 0.84003,-2.38307 1.21875,-3.59375 0.0128,-0.0408 0.0186,-0.0842 0.0312,-0.125 0.325,-1.0449 0.62343,-2.09347 0.90625,-3.15625 0.11377,-0.42705 0.2369,-0.85142 0.34375,-1.28125 0.002,-0.01 -0.002,-0.0214 0,-0.0312 0.26146,-1.05483 0.49961,-2.11661 0.71875,-3.1875 0.13321,-0.65098 0.25771,-1.31212 0.375,-1.96875 0.11368,-0.6364 0.24522,-1.26473 0.34375,-1.90625 0.003,-0.0204 -0.003,-0.0421 0,-0.0625 0.0379,-0.24774 0.0582,-0.50151 0.0937,-0.75 0.0598,-0.41737 0.13418,-0.83058 0.1875,-1.25 0.0145,-0.11447 0.0172,-0.22913 0.0312,-0.34375 0.0431,-0.35158 0.0864,-0.70952 0.125,-1.0625 0.0217,-0.19908 0.0422,-0.39424 0.0625,-0.59375 0.0683,-0.67234 0.13598,-1.35409 0.1875,-2.03125 0.0515,-0.67716 0.0904,-1.34948 0.125,-2.03125 0.002,-0.0309 -0.002,-0.0628 0,-0.0937 0.0253,-0.51051 0.0468,-1.01827 0.0625,-1.53125 0.0253,-0.82696 0.0312,-1.66692 0.0312,-2.5 0,-44.18278 -35.81722,-80 -80,-80 z"
           id="path5580"
           inkscape:connector-curvature="0" />
      </g>
      <g
         transform="translate(551.41297,175.90858)"
         id="g3098">
        <g
           id="g3083">
          <rect
             y="-543.11859"
             x="285.67117"
             height="28"
             width="38"
             id="rect5674"
             style="color:#000000;fill:#008000;fill-opacity:0.24914676;fill-rule:nonzero;stroke:#000000;stroke-width:2;stroke-miterlimit:4;stroke-dasharray:none;marker:none;visibility:visible;display:inline;overflow:visible;enable-background:accumulate" />
          <text
             sodipodi:linespacing="125%"
             id="text5680"
             y="-515.64203"
             x="340.2782"
             style="font-size:40px;font-style:normal;font-weight:normal;line-height:125%;letter-spacing:0px;word-spacing:0px;fill:#000000;fill-opacity:1;stroke:none;font-family:Bitstream Vera Sans"
             xml:space="preserve"><tspan
               y="-515.64203"
               x="340.2782"
               id="tspan5682"
               sodipodi:role="line">A∪B</tspan></text>
        </g>
        <g
           id="g3088"
           transform="translate(0,4.4349365)">
          <rect
             y="-510.43542"
             x="285.67117"
             height="28"
             width="38"
             id="rect5676"
             style="color:#000000;fill:#0000ff;fill-opacity:0.24914676;fill-rule:nonzero;stroke:#000000;stroke-width:2;stroke-miterlimit:4;stroke-dasharray:none;marker:none;visibility:visible;display:inline;overflow:visible;enable-background:accumulate" />
          <text
             sodipodi:linespacing="125%"
             id="text5684"
             y="-482.71472"
             x="340.2782"
             style="font-size:40px;font-style:normal;font-weight:normal;line-height:125%;letter-spacing:0px;word-spacing:0px;fill:#000000;fill-opacity:1;stroke:none;font-family:Bitstream Vera Sans"
             xml:space="preserve"><tspan
               y="-482.71472"
               x="340.2782"
               id="tspan5686"
               sodipodi:role="line">A∪C</tspan></text>
        </g>
        <g
           id="g3093">
          <rect
             y="-468.88251"
             x="285.67117"
             height="28"
             width="38"
             id="rect5678"
             style="color:#000000;fill:#00496d;fill-opacity:0.43921569;fill-rule:nonzero;stroke:#ff0000;stroke-width:2;stroke-miterlimit:4;stroke-dasharray:none;marker:none;visibility:visible;display:inline;overflow:visible;enable-background:accumulate" />
          <text
             sodipodi:linespacing="125%"
             id="text5688"
             y="-444.52118"
             x="337.79773"
             style="font-size:40px;font-style:normal;font-weight:normal;line-height:125%;letter-spacing:0px;word-spacing:0px;fill:#000000;fill-opacity:1;stroke:none;font-family:Bitstream Vera Sans"
             xml:space="preserve"><tspan
               y="-444.52118"
               x="337.79773"
               id="tspan5690"
               sodipodi:role="line">(A∪B)∩(A∪C)</tspan></text>
        </g>
      </g>
    </g>
  </g>
</svg>
