<?xml version="1.0" encoding="UTF-8" standalone="no"?>
<!-- Created with Inkscape (http://www.inkscape.org/) -->

<svg
   xmlns:dc="http://purl.org/dc/elements/1.1/"
   xmlns:cc="http://creativecommons.org/ns#"
   xmlns:rdf="http://www.w3.org/1999/02/22-rdf-syntax-ns#"
   xmlns:svg="http://www.w3.org/2000/svg"
   xmlns="http://www.w3.org/2000/svg"
   xmlns:sodipodi="http://sodipodi.sourceforge.net/DTD/sodipodi-0.dtd"
   xmlns:inkscape="http://www.inkscape.org/namespaces/inkscape"
   width="460.39859"
   height="223"
   id="svg2"
   version="1.1"
   inkscape:version="0.48.2 r9819"
   sodipodi:docname="Aunion_BintersectC.svg">
  <defs
     id="defs4" />
  <sodipodi:namedview
     id="base"
     pagecolor="#ffffff"
     bordercolor="#666666"
     borderopacity="1.0"
     inkscape:pageopacity="0.0"
     inkscape:pageshadow="2"
     inkscape:zoom="1.1647758"
     inkscape:cx="711.28917"
     inkscape:cy="92.451145"
     inkscape:document-units="px"
     inkscape:current-layer="layer1"
     showgrid="false"
     inkscape:window-width="2560"
     inkscape:window-height="1378"
     inkscape:window-x="-8"
     inkscape:window-y="-8"
     inkscape:window-maximized="1"
     fit-margin-top="0"
     fit-margin-left="0"
     fit-margin-right="0"
     fit-margin-bottom="0" />
  <metadata
     id="metadata7">
    <rdf:RDF>
      <cc:Work
         rdf:about="">
        <dc:format>image/svg+xml</dc:format>
        <dc:type
           rdf:resource="http://purl.org/dc/dcmitype/StillImage" />
        <dc:title></dc:title>
      </cc:Work>
    </rdf:RDF>
  </metadata>
  <g
     inkscape:label="Ebene 1"
     inkscape:groupmode="layer"
     id="layer1"
     transform="translate(-48.197998,480.89809)">
    <g
       id="g3145">
      <g
         transform="translate(-2.8344642e-7,-1081.7533)"
         id="g5661">
        <path
           inkscape:connector-curvature="0"
           style="fill:#008000;fill-opacity:1;stroke:none"
           d="m 162.19805,662.85521 c -44.18278,0 -80,35.81722 -80,80.00005 0,1.2762 0.0346,2.5509 0.0937,3.8124 13.17925,9.5563 29.38212,15.1876 46.90625,15.1876 44.18278,0 80,-35.81727 80,-80.00005 0,-1.26576 -0.0356,-2.52987 -0.0937,-3.78125 -13.18005,-9.55821 -29.38014,-15.21875 -46.90625,-15.21875 z"
           id="path5539" />
        <path
           transform="translate(-54.802002,531.49303)"
           d="m 264,150.36218 c 0,44.18278 -35.81722,80 -80,80 -44.18278,0 -80,-35.81722 -80,-80 0,-44.18278 35.81722,-79.999997 80,-79.999997 44.18278,0 80,35.817217 80,79.999997 z"
           sodipodi:ry="80"
           sodipodi:rx="80"
           sodipodi:cy="150.36218"
           sodipodi:cx="184"
           id="path5472"
           style="fill:none;stroke:#000000;stroke-width:2;stroke-miterlimit:4;stroke-dasharray:none"
           sodipodi:type="arc" />
        <path
           transform="translate(11.197998,531.49303)"
           sodipodi:type="arc"
           style="fill:#000000;fill-opacity:0;stroke:#000000;stroke-width:2;stroke-miterlimit:4;stroke-dasharray:none"
           id="path5474"
           sodipodi:cx="184"
           sodipodi:cy="150.36218"
           sodipodi:rx="80"
           sodipodi:ry="80"
           d="m 264,150.36218 c 0,44.18278 -35.81722,80 -80,80 -44.18278,0 -80,-35.81722 -80,-80 0,-44.18278 35.81722,-79.999997 80,-79.999997 44.18278,0 80,35.817217 80,79.999997 z" />
        <path
           d="m 264,150.36218 c 0,44.18278 -35.81722,80 -80,80 -44.18278,0 -80,-35.81722 -80,-80 0,-44.18278 35.81722,-79.999997 80,-79.999997 44.18278,0 80,35.817217 80,79.999997 z"
           sodipodi:ry="80"
           sodipodi:rx="80"
           sodipodi:cy="150.36218"
           sodipodi:cx="184"
           id="path5476"
           style="fill:none;stroke:#000000;stroke-width:2;stroke-miterlimit:4;stroke-dasharray:none"
           sodipodi:type="arc"
           transform="translate(-21.802002,592.49303)" />
        <text
           sodipodi:linespacing="125%"
           id="text5478"
           y="800.85522"
           x="147.93042"
           style="font-size:40px;font-style:normal;font-weight:normal;line-height:125%;letter-spacing:0px;word-spacing:0px;fill:#000000;fill-opacity:1;stroke:none;font-family:Bitstream Vera Sans"
           xml:space="preserve"><tspan
             y="800.85522"
             x="147.93042"
             id="tspan5480"
             sodipodi:role="line">C</tspan></text>
        <text
           sodipodi:linespacing="125%"
           id="text5482"
           y="662.63843"
           x="71.160889"
           style="font-size:40px;font-style:normal;font-weight:normal;line-height:125%;letter-spacing:0px;word-spacing:0px;fill:#000000;fill-opacity:1;stroke:none;font-family:Bitstream Vera Sans"
           xml:space="preserve"><tspan
             y="662.63843"
             x="71.160889"
             id="tspan5484"
             sodipodi:role="line">B</tspan></text>
        <path
           inkscape:connector-curvature="0"
           style="fill:#ff0000;fill-opacity:0.19607843;stroke:#ff0000;stroke-width:2;stroke-miterlimit:4;stroke-opacity:1;stroke-dasharray:none"
           d="m 195.19805,601.85521 c -42.91702,0 -77.93473,33.7892 -79.90625,76.21875 -20.04645,14.53774 -33.09375,38.12455 -33.09375,64.7813 0,1.2762 0.0346,2.5509 0.0937,3.8124 13.17925,9.5564 29.38212,15.1876 46.90625,15.1876 11.7731,0 22.93423,-2.5582 33,-7.125 10.06257,4.5633 21.2317,7.125 33,7.125 44.18278,0 80,-35.81727 80,-80.00005 0,-44.18278 -35.81722,-80 -80,-80 z"
           id="path5541" />
        <text
           sodipodi:linespacing="125%"
           id="text5486"
           y="662.6189"
           x="227.16089"
           style="font-size:40px;font-style:normal;font-weight:normal;line-height:125%;letter-spacing:0px;word-spacing:0px;fill:#000000;fill-opacity:1;stroke:none;font-family:Bitstream Vera Sans"
           xml:space="preserve"><tspan
             y="662.6189"
             x="227.16089"
             id="tspan5488"
             sodipodi:role="line">A</tspan></text>
      </g>
      <g
         transform="translate(-8.0097403,1.0674583)"
         id="g3135">
        <g
           id="g3130">
          <rect
             y="-332.52594"
             x="285.67117"
             height="28"
             width="38"
             id="rect5659"
             style="color:#000000;fill:#008000;fill-opacity:1;fill-rule:nonzero;stroke:#000000;stroke-width:2;stroke-miterlimit:4;stroke-dasharray:none;marker:none;visibility:visible;display:inline;overflow:visible;enable-background:accumulate" />
          <text
             sodipodi:linespacing="125%"
             id="text5692"
             y="-304.19977"
             x="337.28992"
             style="font-size:40px;font-style:normal;font-weight:normal;line-height:125%;letter-spacing:0px;word-spacing:0px;fill:#000000;fill-opacity:1;stroke:none;font-family:Bitstream Vera Sans"
             xml:space="preserve"><tspan
               y="-304.19977"
               x="337.28992"
               id="tspan5694"
               sodipodi:role="line">B∩C</tspan></text>
        </g>
        <g
           id="g3122"
           transform="translate(0,2)">
          <rect
             y="-293.74484"
             x="285.67117"
             height="28"
             width="38"
             id="rect5653"
             style="fill:#ff0000;fill-opacity:0.19607843;stroke:#ff0000;stroke-width:1.99999988;stroke-miterlimit:4;stroke-opacity:1;stroke-dasharray:none" />
          <text
             sodipodi:linespacing="125%"
             id="text5696"
             y="-269.38351"
             x="340.2782"
             style="font-size:40px;font-style:normal;font-weight:normal;line-height:125%;letter-spacing:0px;word-spacing:0px;fill:#000000;fill-opacity:1;stroke:none;font-family:Bitstream Vera Sans"
             xml:space="preserve"><tspan
               y="-269.38351"
               x="340.2782"
               id="tspan5698"
               sodipodi:role="line">A∪(B∩C)</tspan></text>
        </g>
      </g>
    </g>
  </g>
</svg>
